<?xml version="1.0" standalone="no"?>
<svg viewBox="-350 -150 1500 1500" style="width: 487.5px; height: 487.5px; justify-content: center; align-self: center; transform: scale(1, 1);" xmlns="http://www.w3.org/2000/svg"><rect x="-350" y="-150" width="100%" height="100%" fill="#FFD55A" rx="30"></rect><g transform="rotate(0 441.54943466186523 604.8801727294922)"><g transform="translate(0 459)"><path d="M569.933 257.977C561.249 254.881 552.879 251.305 545.253 246.045C523.27 229.682 508.936 205.057 495.392 181.726C476.314 147.793 462.723 111.635 453.328 73.915C449.291 57.709 447.92 38.919 438.748 24.551C417.956 -5.53401 356.987 -1.63601 324.612 3.64499C302.932 7.48099 298.451 31.743 293.527 49.696C289.427 64.613 286.743 79.699 284.49 94.987C279.13 98.511 273.079 101.373 267.311 103.866C204.452 123.141 193.404 158.875 169.395 214.073C128.844 294.302 18.8088 325.715 2.18783 420.664C-8.52117 483.349 21.9318 542.322 53.3288 594.434C82.5688 651.355 123.39 678.675 188.399 665.227C249.374 651.549 307.974 628.668 367.876 610.987C396.889 603.854 425.856 585.3 456.375 591.769C519.26 605.892 583.871 612.532 648.317 610.699C738.801 614.358 738.787 527.513 729.5 460.26C722.995 355.599 670.205 288.395 569.933 257.977L569.933 257.977Z" transform="translate(90.00037 -39.99969)" fill="#FFFFFF" stroke="none"></path><path d="M794.691 379.885C794.177 383.043 793.572 385.897 792.138 388.798C790.279 392.564 787.675 396.045 784.568 398.93C794.01 419.989 797.814 443.248 798.848 466.184C799.592 485.591 798.788 505.366 795.001 524.457C792.066 539.262 786.359 553.446 776.101 564.713C767.629 574.018 756.623 580.535 744.822 584.684C724.011 592 701.218 592 679.343 589.928C679.829 592.002 680.232 594.075 680.648 596.036C681.984 602.329 683.405 659.119 686.264 672.05C687.473 677.52 688.066 684.97 691.321 689.57C694.417 693.946 696.183 698.84 695.089 704.248C694.27 708.299 691.75 713.34 688.789 716.284C687.399 717.664 687.103 718.253 686.625 718.534C685.746 719.052 684.252 718.525 674.199 719.962C554.944 737 258.844 747.2 101.32 713.336C94.9797 720.916 81.2917 721.231 75.7457 711.882C72.7921 706.904 72.5839 699.582 72.4062 693.331C72.3667 691.944 72.3288 690.61 72.2627 689.366C71.7947 680.547 68.9227 608.328 68.0587 590.024C67.924 587.171 67.7834 584.317 67.6428 581.464C66.8942 566.267 66.1451 551.062 66.2807 535.845C66.3607 526.827 66.7427 517.803 67.6357 508.826C67.9957 505.221 68.0347 499.682 69.9067 495.973C64.8607 481.336 58.5817 467.233 51.1207 453.66C38.9077 450.503 27.0537 446.045 15.8167 440.297C10.6977 437.68 5.36067 435.47 3.10267 429.865C1.09767 424.885 -0.205331 419.82 0.0266694 414.368C0.612669 400.589 3.06067 386.643 5.01767 373.002C7.04267 358.885 9.39967 344.816 12.0987 330.812C20.1557 289.016 29.7697 246.559 46.5427 207.297C62.9817 168.825 87.8947 135.92 123.257 113.04C163.377 87.0808 211.808 72.6538 258.844 66.3328C259.776 66.2075 260.704 66.062 261.628 65.9172C265.973 65.236 270.229 64.5688 274.488 66.0738C274.792 66.1813 275.101 66.2979 275.412 66.4155C276.666 66.8889 277.966 67.3799 279.234 67.3678C281.667 67.3448 284.357 66.5468 286.823 66.2588C293.509 65.4778 300.236 65.1348 306.949 64.6658C312.385 64.2878 318.279 64.2498 323.418 62.2048C334.395 57.8368 340.188 20.1098 341.96 14.0308C343.225 9.69184 344.547 3.30184 348.571 0.802843C350.705 -0.521157 354.159 -0.207157 355.842 1.74184C358.971 5.36231 357.852 11.564 356.911 16.7842C356.659 18.1808 356.419 19.507 356.278 20.6948C355.451 27.6258 352.63 78.5528 315.437 81.0528C281.291 83.348 281.572 86.2632 281.848 89.1198C281.872 89.3748 281.897 89.6293 281.897 89.8828C286.357 97.8228 293.101 108.328 298.802 115.135C306.403 124.208 314.804 132.739 323.85 140.377C353.611 165.509 392.588 180.01 431.606 179.382C452.066 179.053 471.029 174.057 484.741 158.006C497.546 143.016 504.724 116.424 510.138 97.7128C497.288 81.6958 491.704 60.1978 496.569 44.2078C498.023 39.4285 500.777 35.1878 506.05 38.3918C510.489 41.0888 510.132 53.8958 511.271 58.4538C513.648 67.9698 518.892 73.1968 525.49 80.6798C530.16 80.3038 534.529 82.1578 537.8 85.5528C567.749 92.8868 596.421 102.286 620.5 122.238C639.544 138.018 654.709 157.973 668.622 178.263C684.893 201.991 700.417 226.258 716.207 250.309C734 277.411 751.765 304.53 769.652 331.571C774.032 338.193 778.419 344.81 782.816 351.421C785.014 354.727 787.215 358.031 789.418 361.333C791.413 364.321 794.192 367.454 795.212 370.957C795.947 373.483 795.411 376.18 794.971 378.393C794.866 378.921 794.766 379.421 794.691 379.885ZM623.983 371.422C631.544 376.422 637.903 384.003 643.008 391.981C621.696 389.764 600.421 387.208 579.193 384.298C581.972 382.522 584.777 380.785 587.646 379.145C588.559 378.63 589.501 378.088 590.466 377.531C600.569 371.711 613.315 364.368 623.983 371.422ZM262.96 423.524C264.482 426.937 265.993 432.891 269.898 434.42C272.95 435.615 277.089 435.098 280.767 434.639C282.104 434.473 283.38 434.314 284.521 434.247C309.179 432.803 334.259 435.301 358.25 441.154C379.688 446.384 400.104 454.807 419.291 465.665C438.121 476.319 455.845 488.779 474.42 499.854C512.509 522.566 553.793 539.318 596.864 549.846C619.102 555.282 641.892 559.338 664.576 562.405C680.749 564.591 697.311 565.99 713.621 564.68C727.654 563.553 742.78 559.969 753.501 550.289C767.661 537.504 770.402 517.536 771.678 499.484C773.067 477.833 772.853 455.801 767.935 434.573C765.582 424.417 761.998 414.964 757.4 405.624C754.767 400.274 749.956 393.6 748.888 387.113C730.006 386.115 711.815 389.696 694.398 396.263C696.568 396.395 698.737 396.527 700.906 396.67C706.23 397.023 711.543 397.476 716.835 398.157C721.037 398.697 726.366 398.731 730.044 401.072C735.949 404.827 735.796 413.346 731.077 417.965C726.059 422.875 716.507 421.762 709.19 420.91C707.816 420.75 706.52 420.599 705.349 420.499C667.205 417.245 629.132 413.538 591.179 408.473C552.441 403.303 513.974 396.715 475.505 389.858C436.991 382.993 398.181 376.591 359.007 375.313C339.667 374.682 320.221 375.362 301.058 378.17C283.236 380.784 266.506 386.225 249.302 391.129C253.833 401.936 258.188 412.821 262.96 423.524ZM242.096 423.552C244.617 431.733 246.546 441.074 251.927 447.948C257.257 454.76 265.298 457.164 273.628 457.77C279.525 458.198 285.463 458.214 291.398 458.229C295.571 458.24 299.744 458.251 303.9 458.406C324.545 459.173 344.907 462.526 364.643 468.677C383.035 474.41 400.108 483.352 416.554 493.272C431.762 502.446 446.524 512.295 461.737 521.441C457.688 523.297 453.685 525.305 449.66 527.053C441.218 530.719 432.724 534.256 424.192 537.705C407.367 544.505 390.471 551.14 373.402 557.304C338.984 569.733 304 580.592 268.595 589.842C251.709 594.254 234.583 599.407 217.04 600.141C201.484 600.791 187.075 596.394 174.529 587.145C148.507 567.961 127.804 540.271 111.068 512.958C101.125 496.731 92.4477 479.681 85.2707 462.052C81.6407 453.137 78.3487 444.085 75.3857 434.927C73.9957 430.627 72.6777 426.303 71.4297 421.959C70.8807 420.049 70.3547 418.133 69.8337 416.215C96.4427 408.095 123.368 400.765 150.925 396.696C165.638 394.523 180.547 393.423 195.421 393.583C202.804 393.662 210.183 394.061 217.527 394.823C221.48 395.233 225.417 395.761 229.337 396.415C230.957 396.684 232.622 397.082 234.292 397.375C236.843 406.116 239.415 414.85 242.096 423.552Z" transform="translate(41.99993 -1.999843)" fill="#000000" fill-rule="evenodd" stroke="none"></path></g><g transform="translate(225 0)"><g><g><path d="M340.529 155.003C338.376 136.088 341.162 96.5517 341.348 94.1497C342.529 78.9648 335.414 19.0018 321.964 24.5268C299.401 6.66576 269.351 2.72176 241.251 0.837757C182.883 -3.07624 120.791 5.90876 75.7204 45.1888C53.4316 65.5878 31.7323 95.2567 33.4765 126.149C13.2256 155.431 -15.3236 195.598 9.90814 229.831C18.4849 240.768 32.1161 244.841 42.8905 253.124C64.5622 270.604 78.1586 295.69 100.036 313.066C157.996 365.149 256.413 376.029 313.359 316.789C357.394 273.885 350.274 209.699 342.529 155.003C337.321 118.23 344.728 191.904 340.529 155.003Z" transform="translate(65.0005 149)" fill="#FFFFFF" stroke="none"></path><path d="M227.86 0.104592C211.919 -0.485408 195.89 1.47459 180.28 4.62459C149.299 10.8646 117.57 21.0746 89.509 35.7146C77.727 41.8646 66.8569 49.4596 57.054 58.2086C48.193 53.9716 34.213 53.6276 31.373 63.3436C30.558 66.1326 30.964 68.6606 32.134 70.8226C31.793 71.0166 31.456 71.2246 31.126 71.4456C28.8908 72.9424 27.6975 74.0315 26.3137 75.4062L25.221 76.5016C21.761 79.9726 21.434 86.3956 25.221 89.8226L25.739 90.2906L26.0576 90.5686C26.7029 91.1105 27.3954 91.5689 28.118 91.9486C14.847 112.287 5.83895 135.465 2.10995 159.685C-0.0810489 173.905 -0.720049 188.125 0.929951 202.435C1.72995 209.425 2.92995 216.885 5.37895 223.495C6.56995 226.725 8.24895 229.865 9.75895 232.965C11.4 236.345 14.089 238.815 16.299 241.835C16.539 242.145 16.919 242.305 17.289 242.315C16.62 243.695 16.009 245.095 15.44 246.485C12.169 254.475 9.64995 263.085 8.18995 271.595C5.43995 287.645 7.11995 305.695 19.339 317.705C24.209 322.485 31.749 326.315 39.16 327.335C36.789 329.775 34.879 332.675 33.35 336.015C30.49 342.245 35.259 350.675 42.839 348.355C44.28 347.915 45.709 347.355 47.11 346.735C49.289 351.065 53.95 353.995 58.95 353.245C61.86 352.805 63.959 351.675 65.4 350.085C69.009 358.065 73.799 365.315 79.8699 371.715C86.2889 378.495 93.379 384.605 99.7799 391.405C105.999 398.005 109.69 406.625 117.02 412.065C119.299 413.755 122.79 411.955 123.43 409.455C125.915 399.726 119.222 391.626 112.872 384.935L112.07 384.095C105.259 377.015 97.39 371.105 90.14 364.505C82.61 357.645 76.549 350.365 71.089 341.765C70.6174 341.025 70.1472 340.27 69.6753 339.507L67.53 336.025C67.419 335.515 67.299 335.015 67.16 334.525C67.049 332.555 66.39 330.685 65.1199 328.965C63.549 326.835 61.45 325.225 59.11 324.475C58.32 323.635 57.499 322.835 56.64 322.095C57.709 320.925 58.65 319.545 59.45 317.945C60.93 314.965 59.2 310.225 55.24 310.615C54.0504 310.729 52.8818 310.675 51.7142 310.621C50.4369 310.562 49.1608 310.503 47.86 310.665C47.5484 310.704 47.237 310.745 46.9256 310.786C44.7888 311.069 42.6557 311.351 40.499 311.055C36.07 310.425 32.1 308.025 29.22 304.665C22.009 296.265 21.249 284.185 22.759 273.705C23.4263 269.026 24.5669 264.428 25.7788 259.855L27.6525 252.851C28.7204 248.937 30.007 244.881 32.52 241.695C40.4061 231.694 53.9178 239.542 62.0054 245.562L62.74 246.115C62.81 246.165 62.87 246.185 62.94 246.185C63.37 246.885 63.83 247.575 64.31 248.235C66.959 251.815 70.169 254.995 73.4799 257.995L74.1553 258.611C74.6084 259.02 75.066 259.425 75.52 259.825C79.39 263.235 84.629 260.725 85.14 255.845C86.089 246.645 85.83 237.345 86.419 228.105C87.0089 218.855 88.07 209.635 89.6499 200.505C91.2299 191.385 93.27 182.355 95.759 173.455C97.009 168.995 98.379 164.585 99.839 160.195C100.95 156.815 101.78 151.335 104.709 148.985C107.36 146.845 112.35 146.485 115.6 145.795C120.14 144.825 124.709 143.965 129.259 142.995C137.77 141.165 146.27 139.175 154.65 136.815C162.95 134.475 171.18 131.715 179.15 128.395C176.86 132.235 174.589 136.085 172.339 139.945C169.259 145.235 173.299 150.885 178.89 151.355C184.629 151.835 190.44 151.405 196.039 150.045C197.23 149.755 198.32 149.425 199.33 149.035C205.479 148.594 211.755 147.191 217.533 145.767L220.23 145.095C231.209 142.335 241.759 138.565 252.16 134.115C253.325 133.617 254.491 133.109 255.657 132.592C259.971 131.29 264.22 129.777 268.386 128.056C283.831 130.393 299.585 129.487 314.759 125.755C321.31 124.145 328.43 122.125 335.2 119.325C338.57 125.075 343.74 129.735 349.509 133.115C350.14 138.105 350.49 143.145 350.72 148.145C351.459 164.085 352.299 180.025 353.169 195.955L353.449 201.113C355.094 232.07 356.102 263.076 356.339 294.065C356.56 322.305 354.83 350.185 339.53 374.745C326.64 395.465 306.53 411.955 283.18 419.355C268.839 423.895 253.64 425.355 238.669 423.905C231.36 423.195 224.12 421.525 217.129 419.285L216.124 418.968C209.105 416.802 202.421 415.732 195.1 414.845C190.259 414.255 189.089 420.535 191.52 423.485C196.66 429.705 202.15 433.855 209.789 436.675C216.69 439.215 224.009 440.825 231.28 441.875C246.28 444.035 261.41 443.795 276.23 440.405C303.73 434.125 328.039 417.605 344.97 395.195C363.56 370.585 369.549 341.165 369.94 310.855C370.361 278.421 368.752 245.831 366.61 213.451L366.16 206.755C365.2 192.745 364.18 178.685 362.589 164.705C365.22 164.965 367.98 164.145 370.22 161.895C374.584 157.531 375.617 150.814 376.136 144.748L376.27 143.075C376.69 137.485 375.839 131.765 374.31 126.395C372.202 119.041 368.668 112.849 363.676 107.664C370.362 100.458 373.963 90.2596 374.757 80.6316C375.33 73.6936 375.863 64.5746 368.207 61.3416C366.695 60.7026 365.13 60.4666 363.556 60.4996C363.96 58.0286 364.233 55.5276 364.386 52.9966C364.631 48.9726 360.502 44.5616 356.369 44.9776C355.113 45.1046 353.857 45.2396 352.601 45.3706C353.352 44.1696 354.106 42.9716 354.88 41.7856C358.134 36.8086 353.736 31.2596 348.597 30.8346C334.938 29.7056 321.418 26.9046 308.386 22.6616C295.294 18.3976 281.618 14.1066 269.184 8.17159C268.306 7.75259 267.338 8.06259 266.736 8.66659C256.273 1.69209 241.083 0.631691 229.089 0.152327L227.86 0.104592ZM50.9901 264.032C46.347 261.873 40.0585 258.949 35.2303 260.525C33.0202 261.245 32.3693 263.585 33.3693 265.305L33.2892 265.305L33.4965 265.636C34.4149 267.034 35.5933 267.982 36.8854 268.882L37.4893 269.295C35.8693 270.445 34.6292 272.105 34.0892 274.225C33.2202 277.595 34.6292 281.735 37.8293 283.425C39.1103 284.095 40.4992 284.465 41.9492 284.535C43.9947 284.625 45.7013 283.683 47.2494 282.505L47.7093 282.145C48.3903 281.605 48.9403 280.885 49.3792 280.105C53.1103 284.925 56.2493 290.615 62.8392 290.795C65.9893 290.885 69.5493 288.375 70.1992 285.185C70.2702 284.875 70.3293 284.565 70.3903 284.265C70.9993 281.275 70.5602 277.775 68.1102 275.635C63.1903 271.355 58.1103 267.305 52.1403 264.565C51.7701 264.395 51.3861 264.216 50.9901 264.032Z" transform="translate(48.00005 65.00051)" fill="#000000" fill-rule="evenodd" stroke="none"></path></g></g><g transform="translate(159 186)"><g><path d="M140.63 0.473197L139.193 0.179116C137.503 -0.15929 135.804 -0.0161244 134.311 0.591153C132.847 1.18684 131.572 2.2242 130.68 3.72083C129.495 5.71373 129.337 7.38618 129.887 9.59525C130.311 11.3022 131.242 12.5864 132.46 13.5139C133.744 14.4911 135.37 15.0612 137.06 15.2595C144.854 16.175 152.53 17.8896 159.992 20.3235C163.488 21.4643 166.788 23.0096 170.058 24.6132L172.877 26.002C175.477 27.2735 178.163 28.499 181.557 29.3885C181.824 29.4584 182.087 29.5243 182.349 29.5865C183.29 29.2909 183.45 28.9329 183.649 28.6733L183.73 28.5721C183.972 28.2679 184.271 27.8025 183.988 25.6306C176.583 10.2711 156.267 3.74181 140.63 0.473197ZM43.5878 4.83023L45.4652 4.50163C51.273 3.49719 58.4944 2.53203 62.6028 7.20123C64.7819 9.67723 65.5318 14.2792 62.6028 16.6492C58.7671 19.7539 54.6298 19.6513 50.2182 19.5419C48.7043 19.5044 47.1582 19.466 45.5808 19.5562C40.4928 19.8482 35.6028 20.6902 30.7018 22.0912C19.9498 25.1642 11.1888 30.7742 2.00585 36.9342C0.800849 37.7422 -0.429151 36.2012 0.145849 35.0742C5.44685 24.6912 15.7198 16.1622 26.0098 10.9632C31.5019 8.18823 37.5118 5.88623 43.5878 4.83023ZM29.9632 50.1461C30.7976 39.7899 46.5702 37.4381 48.1392 47.6861C49.5442 56.8661 47.8902 65.2991 43.7552 73.5641C39.8042 81.4601 29.8737 77.7763 29.1227 70.5863C28.3809 63.4843 28.9069 59.2482 29.4428 54.933C29.6341 53.3921 29.8267 51.8412 29.9632 50.1461ZM159.205 41.8262C155.401 40.7152 152.226 42.6812 150.027 45.5612C149.773 45.8932 149.566 46.2222 149.38 46.5482C142.515 52.8562 145.101 65.6452 150.501 72.0492C153.814 75.9762 161.145 74.8452 163.413 70.3852C167.587 62.1722 171.09 45.2992 159.205 41.8262ZM128.748 119.039C136.872 107.66 125.366 96.9569 117.814 92.3669C115.836 90.9469 117.406 86.2431 121.634 86.9701C160.031 93.5671 140.136 159.708 91.112 123.413C85.2754 118.704 92.3434 108.334 98.6342 112.366C98.9532 112.611 99.2876 112.869 99.6364 113.139C106.704 118.603 119.636 128.601 128.748 119.039ZM93.5865 188.926C86.8642 186.184 80.8663 181.61 76.4812 175.766C74.9566 173.735 74.5614 171.589 74.8812 169.627C75.2408 167.421 76.546 165.422 78.326 164.08C80.1115 162.735 82.345 162.072 84.5043 162.41C86.3806 162.704 88.2484 163.731 89.7265 165.862L90.0354 166.288C92.6424 169.815 96.0396 172.708 99.9104 174.574C103.641 176.372 107.814 177.211 112.132 176.723C120.356 175.794 126.024 171.346 132.049 165.306C132.796 164.544 133.543 163.757 134.294 162.958C134.768 162.234 135.426 161.768 136.157 161.524C136.968 161.253 137.886 161.268 138.726 161.562C139.537 161.845 140.262 162.381 140.747 163.094C141.209 163.772 141.471 164.61 141.386 165.574C140.835 171.833 137.562 177.419 132.914 181.805C127.752 186.677 120.909 190.047 114.466 191.229C107.368 192.531 100.136 191.598 93.5865 188.926Z" transform="translate(53.00005 52.00027)" fill="#000000" fill-rule="evenodd" stroke="none"></path></g></g><g transform="translate(123 338)"></g><g transform="translate(47 241)"><g><path d="M316.813 3.10942C324.946 1.29242 394.509 -7.19658 396.465 14.9734C398.027 18.5324 397.593 37.5744 390.851 31.9324C373.772 44.8104 378.699 69.5144 366.274 85.8844C349.797 109.469 295.046 106.723 288.055 38.6864C281.114 35.9151 274.999 37.0109 268.751 38.1307C265.935 38.6352 263.093 39.1447 260.135 39.3074C269.752 111.531 152.497 141.921 143.304 53.8704C141.966 42.4674 138.517 43.4774 128.359 40.2094C126.53 39.8254 124.439 39.4604 122.435 38.8834C119.102 39.9934 117.307 38.4075 114.671 36.0782C106.929 29.2369 91.9299 15.9829 9.37509 45.7834C9.28609 50.3874 6.06709 52.6614 2.84509 50.4264C-18.3829 21.4114 85.4011 13.5744 108.135 14.3954C112.562 13.1234 116.74 12.4004 120.176 13.7484C138.328 -0.852581 224.917 -9.07258 250.63 19.5904C267.763 24.9805 282.206 18.1835 296.811 11.31C303.36 8.22787 309.942 5.13039 316.813 3.10942ZM368.291 12.4564C368.281 12.4694 368.269 12.4804 368.259 12.4934C368.182 12.4464 368.106 12.3984 368.027 12.3524C368.114 12.3884 368.206 12.4194 368.291 12.4564ZM351.985 88.3954C336.977 95.6234 316.039 84.9624 305.948 73.7954C302.275 69.7294 299.441 58.0964 300.854 50.7184C304.681 30.7374 319.061 18.7454 334.242 14.6504C355.286 8.97242 376.464 23.3564 373.995 40.3304C371.654 56.4174 368.107 79.7524 351.985 88.3954ZM210.244 96.4944C231.144 90.8474 248.631 71.7884 249.834 50.0134C250.295 40.7774 247.593 31.6544 240.983 25.3334C218.401 18.1694 173.188 13.7214 154.605 39.8164C149.88 46.4504 151.641 54.1844 152.39 56.7184C159.928 82.2194 176.57 105.89 210.244 96.4944Z" transform="translate(1.000312 17.99998)" fill="#000000" fill-rule="evenodd" stroke="none"></path></g></g></g></g></svg>